/* XPM */
static char *_6025940f819407c9eb33b1860b7a84cHaRaRY3DukmxwIfD[] = {
/* columns rows colors chars-per-pixel */
"40 40 176 2 ",
"   c None",
".  c #53250D",
"X  c #562814",
"o  c #562C18",
"O  c #592E1A",
"+  c #573017",
"@  c #57311A",
"#  c #5C331D",
"$  c #61361E",
"%  c #5D3523",
"&  c #5E3925",
"*  c #5E3728",
"=  c #613623",
"-  c #633926",
";  c #643C2A",
":  c #6A3E2B",
">  c #65402F",
",  c #6E412E",
"<  c #654131",
"1  c #6B4332",
"2  c #6B4834",
"3  c #6B4938",
"4  c #714533",
"5  c #76473A",
"6  c #734D3C",
"7  c #794D3C",
"8  c #72503D",
"9  c #755343",
"0  c #7B5343",
"q  c #7C5946",
"w  c #7B5749",
"e  c #7B5A4A",
"r  c #7F624F",
"t  c #7E6051",
"y  c #805647",
"u  c #865749",
"i  c #805C4D",
"p  c #8A5C4D",
"a  c #8C5F53",
"s  c #825E52",
"d  c #836455",
"f  c #8D6254",
"g  c #856759",
"h  c #8F675A",
"j  c #866958",
"k  c #8A6A5C",
"l  c #94665A",
"z  c #96695D",
"x  c #98695D",
"c  c #8A6C60",
"v  c #946F63",
"b  c #9E6D63",
"n  c #8F7465",
"m  c #8E796A",
"M  c #927365",
"N  c #9F7065",
"B  c #95766A",
"V  c #9C756B",
"C  c #947A6D",
"Z  c #967D72",
"A  c #9B7E75",
"S  c #A1736A",
"D  c #A7786D",
"F  c #A8796E",
"G  c #AB7A73",
"H  c #978171",
"J  c #9A8376",
"K  c #9D847B",
"L  c #9E897F",
"P  c #A28779",
"I  c #AD857C",
"U  c #A28B7E",
"Y  c #B2847C",
"T  c #AE957F",
"R  c #BFA77A",
"E  c #BBA376",
"W  c #A38D82",
"Q  c #AE8D86",
"!  c #B78780",
"~  c #B68A82",
"^  c #BA8B85",
"/  c #BF8F89",
"(  c #A89387",
")  c #AF9880",
"_  c #AB958B",
"`  c #AB998E",
"'  c #BF918B",
"]  c #B09A8F",
"[  c #AE9B93",
"{  c #B49790",
"}  c #BE9792",
"|  c #B29B93",
" . c #BE9A95",
".. c #B4A39B",
"X. c #BBA59C",
"o. c #BFA6A1",
"O. c #BAABA3",
"+. c #BFAFA8",
"@. c #BFB0AA",
"#. c #C2938D",
"$. c #C69691",
"%. c #C89793",
"&. c #C79994",
"*. c #C89891",
"=. c #CE9E99",
"-. c #CEA19C",
";. c #D1A19D",
":. c #C4A7A2",
">. c #CDA5A2",
",. c #C1A8A1",
"<. c #CCA8A2",
"1. c #D6A6A2",
"2. c #D7A8A5",
"3. c #D9A9A5",
"4. c #D2AFAB",
"5. c #DBADAA",
"6. c #C2B3AC",
"7. c #CAB1AC",
"8. c #D4B2AE",
"9. c #DCB1AE",
"0. c #C5B7B0",
"q. c #CBB5B1",
"w. c #C7BAB3",
"e. c #C8BCB6",
"r. c #C9BEB8",
"t. c #D3B5B1",
"y. c #DDB3B2",
"u. c #DDBDBA",
"i. c #E1B1AE",
"p. c #E4B5B3",
"a. c #E9BAB7",
"s. c #E4BBB9",
"d. c #EBBCBA",
"f. c #CDC1BC",
"g. c #D2C2BE",
"h. c #EFC0BF",
"j. c #F1C1BF",
"k. c #D1C7C3",
"l. c #DEC6C3",
"z. c #D4CAC5",
"x. c #D7CECA",
"c. c #DBCECA",
"v. c #DAD1CE",
"b. c #DDD5D2",
"n. c #DED8D5",
"m. c #E3C2C1",
"M. c #ECC4C3",
"N. c #EBC8C6",
"B. c #E7CDCA",
"V. c #F4C5C4",
"C. c #F7C8C7",
"Z. c #FACBCA",
"A. c #E3D0CF",
"S. c #E4D5D3",
"D. c #E1DBD7",
"F. c #E4DDDA",
"G. c #E8DCDB",
"H. c #E5E1DD",
"J. c #EBE4E2",
"K. c #EDE9E7",
"L. c #EEEBE9",
"P. c #F1EEEC",
"I. c #F2F0EE",
"U. c #F4F2F1",
"Y. c #F7F5F3",
"T. c #F6F4F3",
"R. c #F8F7F7",
"E. c #F8F7F6",
"W. c #F8F8F7",
"Q. c #FBFAFA",
"!. c #FAFAF9",
"~. c #FCFCFB",
"^. c #FDFDFC",
"/. c white",
"(. c #FEFEFE",
"). c #FFFFFF",
/* pixels */
"                                          % ; 1 -             X                 ",
"              # & %                     : S 1.i.#.7 @ # 9 M U ( j =             ",
"          # e ..0.O.K e -       ; ; & # ! Z.Z.Z.Z.3.: m H.~././.I.r             ",
"          2 n././././.L.+.K | 6.f.z.X.a V.Z.C.5.;.=.0 W J.~./././.W +           ",
"        % g Q./././././././././././.+.G Z.Z.3.G =.p Y ' I A W _ P q #           ",
"        % k /./././././././././././.| D Z.Z.d.^ x 1.Z.Z.Z.G S p.d.i.b -         ",
"          2 w.U././././././././././.D.v 3.j.V.#.7 d.Z.Z.Z.#.f =.Z.Z.5.4         ",
"          O j I./././././././././././.n.X.X.:.X._ I i.a.-.p ^ Y C.Z./ -         ",
"          1 x././././././././././././././././././.z.X.B l =.3.d.Z.;.:           ",
"        @ W /././././././././././././././././././././.P.{ #.i.3.~ A e =         ",
"        1 n././././././././././././././././././././././.U.6._ | f.W.z.1         ",
"        e Y././././././././././././././././././././././././././././.D.1         ",
"      % e K.Q././././././././././././././././././././.R././././.Q.w.( - O $ # ; ",
"- % = O = [ z.Q././.D.M ] Q././././././././././././.v.d ` ~./././.Y.L.9         ",
"        2 D././././.O.. 6 P./././././.R.R./././././.@.X t Y./././.L.[ = %       ",
"        # n f.Y././.L.[ r./././././.w.) T O.Q./././.U.6.b./././././.K O - *     ",
"      = O O O././././././././././.Q.P E R M U./././././././././.n.w.9           ",
"            9 ` 6.~././././././././.P.z.k.K././././././././././.[ # O %         ",
"          # . . k D.R./././././././././././././././././././.L...1 &     %       ",
"      % % 1 8 q q d C ` e.D.U./././././././././././.Y.F.e.` n 9 8 q 6 >         ",
"      k k.J.I.Y.Y.L.D.f.` d e B U | O.@.6.6.O...W C s Z [ z.K.P.P.K.H.k.W 1     ",
"    1 v././././././././.Y.C G ;.*./ ~ Y Y Y Y ~ ' %.l X./././././././././.J @   ",
"    ; 0././././././././.[ N C.Z.Z.Z.Z.Z.Z.Z.Z.Z.Z.Z.d.V x././././././././.H #   ",
"      2 U P./.U.b.c.b.r.y i.Z.Z.Z.Z.Z.Z.Z.Z.Z.Z.Z.Z.Z.5.k 0.b.x.F././.r.H 2     ",
"        % C 6.d % # % % G Z.Z.Z.Z.Z.Z.Z.Z.Z.Z.Z.Z.Z.Z.Z./ = % # ; W ..<         ",
"          % w 0 f l 0 5 p.Z.Z.Z.Z.Z.Z.Z.Z.Z.Z.Z.Z.Z.Z.Z.C.a 5 a p : #           ",
"          8 H.g.p.Z.V.*.' d.C.Z.Z.Z.Z.Z.Z.Z.Z.Z.Z.Z.Z.d.$./ d.Z.5.X.i %         ",
"          & _ 8.C.Z.a.b F 5.p.p.5.i.d.j.d.d.p.5.a.d.p.2.Y x =.Z.8...;           ",
"            w p.V.s.4.&.C.Z.Z.-.z =.p.d.d.i.$.p ^ C.Z.Z.d.-.5.Z.9.0             ",
"              S l 6.J.c.5.Z.Z.#.3.Z.Z.Z.Z.Z.Z.1.b d.Z.h.q.D.7.&.&.              ",
"                  2 c 0.>.Z.Z.d.8.<.V.Z.Z.Z.y.4.9.C.Z.d.o.J 9 <                 ",
"                      2 ~ C.5.{ z.f.-.Z.Z.p.q.D.c.} a.5.4 #                     ",
"                          a B W W L | s.d. .Z t 9 M z.W #                       ",
"                          o j K.J.c.l.t.4.u.t.f e :.Q 3                         ",
"                            = ^ >.t.l.S.G.A.u.z i { ,                           ",
"                            O h B.l.8.s.m.M.y.V e e #                           ",
"                              ; ,.m.t.l.G.S.t.z O &                             ",
"                              % 1 ' u.B.N.M.h.u @                               ",
"                                % 5 G =.3.-.z =                                 ",
"                                    O = : = #                                   "
};
