/* XPM */
static char *kitty_on_font[] = {
/* columns rows colors chars-per-pixel */
"40 40 198 2 ",
"   c #52240D",
".  c #562811",
"X  c #582D18",
"o  c #5B311E",
"O  c #5E3421",
"+  c #5F3825",
"@  c #623622",
"#  c #653925",
"$  c #6B3D2B",
"%  c #653F2D",
"&  c #6D422C",
"*  c #72472F",
"=  c #6C4432",
"-  c #6E4936",
";  c #724632",
":  c #744A37",
">  c #7A4C3B",
",  c #754A38",
"<  c #72513E",
"1  c #7D543D",
"2  c #765342",
"3  c #7B5443",
"4  c #7C5946",
"5  c #7B5A4A",
"6  c #785748",
"7  c #7F624F",
"8  c #7E6051",
"9  c #82563E",
"0  c #815643",
"q  c #855A44",
"w  c #8C5E45",
"e  c #815B4C",
"r  c #8A5C4C",
"t  c #865749",
"y  c #8D5E53",
"u  c #825E52",
"i  c #8F644C",
"p  c #8D6246",
"a  c #92664C",
"s  c #95694E",
"d  c #836455",
"f  c #8C6454",
"g  c #8C6854",
"h  c #8A6B5C",
"j  c #886859",
"k  c #956B54",
"l  c #9B6E55",
"z  c #95665A",
"x  c #96695D",
"c  c #996C5E",
"v  c #926650",
"b  c #9D7156",
"n  c #9D735B",
"m  c #A1745B",
"M  c #A67A5E",
"N  c #9E6D63",
"B  c #946F63",
"V  c #8F7465",
"C  c #8E796A",
"Z  c #917264",
"A  c #9F7263",
"S  c #95766A",
"D  c #9C756B",
"F  c #95796C",
"G  c #967E71",
"H  c #9B7E75",
"J  c #A97C63",
"K  c #A17269",
"L  c #A67967",
"P  c #AB7A73",
"I  c #998274",
"U  c #9E857A",
"Y  c #9E897F",
"T  c #AE8165",
"R  c #B18266",
"E  c #B3866B",
"W  c #B6896E",
"Q  c #BA8B6F",
"!  c #A28779",
"~  c #A38B7F",
"^  c #AD857C",
"/  c #B2847C",
"(  c #BB8C72",
")  c #AE957F",
"_  c #BE917C",
"`  c #BF9275",
"'  c #BDA578",
"]  c #C49679",
"[  c #C6987C",
"{  c #C8997D",
"}  c #C19377",
"|  c #A38D82",
" . c #AE8D86",
".. c #B68981",
"X. c #BA8B85",
"o. c #BF8F89",
"O. c #B78780",
"+. c #A89387",
"@. c #AB958B",
"#. c #AB998E",
"$. c #AF9880",
"%. c #BF918A",
"&. c #B09A8F",
"*. c #AE9B93",
"=. c #B49790",
"-. c #B29B93",
";. c #BE9994",
":. c #B4A39B",
">. c #BBA59C",
",. c #BAABA3",
"<. c #BFAFA8",
"1. c #BFA6A1",
"2. c #BFB0AA",
"3. c #CD9E81",
"4. c #C2938D",
"5. c #C69691",
"6. c #C79994",
"7. c #C89A93",
"8. c #CE9E99",
"9. c #C89793",
"0. c #CEA083",
"q. c #D2A284",
"w. c #D7A98C",
"e. c #DBAB8D",
"r. c #D5A588",
"t. c #CEA19C",
"y. c #D1A19D",
"u. c #DFB091",
"i. c #E0AF91",
"p. c #E4B495",
"a. c #ECBB9C",
"s. c #F0BF9E",
"d. c #C4A7A2",
"f. c #CAA7A2",
"g. c #D6A6A2",
"h. c #D9A9A5",
"j. c #D2AFAB",
"k. c #DBADAA",
"l. c #D7A8A5",
"z. c #C2B3AC",
"x. c #CAB1AC",
"c. c #D4B2AE",
"v. c #DCB1AE",
"b. c #C5B7B0",
"n. c #CBB5B1",
"m. c #C7BAB3",
"M. c #C9BEB8",
"N. c #C8BCB6",
"B. c #D3B5B1",
"V. c #DDBDBA",
"C. c #DDB3B2",
"Z. c #E1B1AE",
"A. c #E4B5B3",
"S. c #E9BAB7",
"D. c #E4BBB9",
"F. c #EBBCBA",
"G. c #CDC1BC",
"H. c #D2C2BE",
"J. c #F5C3A2",
"K. c #F9C7A6",
"L. c #FAC8A7",
"P. c #FFCCAA",
"I. c #EFC0BF",
"U. c #F1C1BF",
"Y. c #D1C7C3",
"T. c #DEC6C3",
"R. c #D4CAC5",
"E. c #D7CECA",
"W. c #DBCECA",
"Q. c #DAD1CE",
"!. c #DDD5D2",
"~. c #DED8D5",
"^. c #E3C2C1",
"/. c #ECC4C3",
"(. c #E8CBC9",
"). c #F4C5C4",
"_. c #F7C8C7",
"`. c #FACBCA",
"'. c #E3D0CF",
"]. c #E4D5D3",
"[. c #E1DBD7",
"{. c #E4DDDA",
"}. c #E8DCDB",
"|. c #E5E1DD",
" X c #EBE4E2",
".X c #EDE9E7",
"XX c #EEEBE9",
"oX c #F1EEEC",
"OX c #F2F0EE",
"+X c #F5F3F2",
"@X c #F8F7F7",
"#X c #FBFAF9",
"$X c #FCFCFB",
"%X c #FDFDFC",
"&X c white",
"*X c #FEFFFE",
"=X c #FFFFFF",
"-X c #F8F8F7",
/* pixels */
"P.P.P.P.P.P.P.P.P.P.P.P.P.P.P.P.P.P.P.P.a.b ; : q { P.P.a.3.R m ( a.P.P.P.P.P.P.",
"P.P.P.P.P.J.] l k J { a.P.P.P.P.P.P.K.i.r K g.Z.4.0 b b j F ~ +.h q a.P.P.P.P.P.",
"P.P.P.P.J.l 5 :.b.,.U j a T Q E m v q * O.`.`.`.`.h.$ C |.&X&X&XOX7 R P.P.P.P.P.",
"P.P.P.P.3.- ~.&X&X&X&XXX<.U -.z.G.R.:.y ).`._.k.y.8.3 |  X&X&X&X&X| p P.P.P.P.P.",
"P.P.P.P.J j &X&X&X&X&X&X&X&X&X&X&X&X<.P `.`.h.P 8.r / %.^ H | @.! 3 > a.P.P.P.P.",
"P.P.P.P.J h &X&X&X&X&X&X&X&X&X&X&X&X-.L `.`.F.X.x g.`.`._.P K A.F.Z.N m P.P.P.P.",
"P.P.P.P.} - m.+X&X&X&X&X&X&X&X&X&X&X[.B h.U.).4.> F.`.`.`.4.j 8.`.`.k.i K.P.P.P.",
"P.P.P.P.p.# j OX&X&X&X&X&X&X&X&X&X&X&X~.>.>.d.>.@.^ Z.S.t.r X./ ).`.X.l P.P.P.P.",
"P.P.P.P.3.- E.&X&X&X&X&X&X&X&X&X&X&X&X&X&X&X&X&X&XR.>.S x 8.h.F.`.y.$ E P.P.P.P.",
"P.P.P.K.q | &X&X&X&X&X&X&X&X&X&X&X&X&X&X&X&X&X&X&X&X&XoX=.4.Z.h...H 5 J P.P.P.P.",
"P.P.P.i.: ~.&X&X&X&X&X&X&X&X&X&X&X&X&X&X&X&X&X&X&X&X&X&X+Xz.@.-.G.-XR.q J.P.P.P.",
"P.P.P.{ 5 +X&X&X&X&X&X&X&X&X&X&X&X&X&X&X&X&X&X&X&X&X&X&X&X&X&X&X&X&X[.- W q.0.p.",
"L.a.a.J 5 .X&X&X&X&X&X&X&X&X&X&X&X&X&X&X&X&X&X&X&X&X&X@X&X&X&X&X&Xm.+.# , a w n ",
"m 0 w & @ *.R.&X&X&X[.Z &.&X&X&X&X&X&X&X&X&X&X&X&X&XQ.d @.&X&X&X&X+XXX3 q.P.P.L.",
"p.p.J.w.3 [.&X&X&X&X,.  : oX&X&X&X&X&X@X@X&X&X&X&X&X2.. 8 +X&X&X&XXX*.@ k ] w.P.",
"P.P.J.w.* V G.+X&X&XXX*.M.&X&X&X&X&Xm.$.) ,.&X&X&X&X+Xz.~.&X&X&X&X&XU ; J J _ P.",
"P.P.0.l w # ,.&X&X&X&X&X&X&X&X&X&X&X! ' ' Z +X&X&X&X&X&X&X&X&X&X~.m.2 ] P.P.P.P.",
"P.P.P.P.P.W 3 @.z.&X&X&X&X&X&X&X&X&XoXR.R..X&X&X&X&X&X&X&X&X&X&X*.O # q R p.P.P.",
"P.P.P.K.[ 9 .   h [.@X&X&X&X&X&X&X&X&X&X&X&X&X&X&X&X&X&X&X&XXX:.- m w.0.J [ P.P.",
"P.P.P.J + - < 4 4 d F #.N.{.+X&X&X&X&X&X&X&X&X&X&X&X+X{.m.#.V 2 2 g k k W a.P.P.",
"P.P.( h Y. XOX+X+XXX{.G.#.d 5 S ~ -.,.2.z.z.,.:.| F u G *.R..XoXoX.X|.Y.| 0 w.P.",
"P.J.q Q.&X&X&X&X&X&X&X&X+XF P y.8.o.../ / / / ..%.9.x :.&X&X&X&X&X&X&X&X&XU s P.",
"P.J.1 b.&X&X&X&X&X&X&X&X*.A _.`.`.`.`.`.`.`.`.`.`.`.F.D E.&X&X&X&X&X&X&X&XU M P.",
"P.P.[ q ~ oX&X+X~.W.~.M.0 Z.`.`.`.`.`.`.`.`.`.`.`.`.`.k.h b.~.E.{.&X&XM.U n a.P.",
"P.P.P.s.J G z.d O o O O P `.`.`.`.`.`.`.`.`.`.`.`.`.`.`.o.@ O o % | :.3 E J.P.P.",
"P.P.P.P.p.- 6 3 j x 3 ; A.`.`.`.`.`.`.`.`.`.`.`.`.`.`.`.).y , y r $ @ ] P.P.P.P.",
"P.P.P.P.] < |.H.A.`.).6.%.F._.`.`.`.`.`.`.`.`.`.`.`.`.F.5.o.F.`.k.>.e J P.P.P.P.",
"P.P.P.P.a.1 @.c._.`.S.N P k.A.A.k.Z.F.U.F.F.A.k.S.F.A.l./ x 8.`.c.:.: w.P.P.P.P.",
"P.P.P.P.P.p.A A.).S.j.6.).`.`.t.x 8.A.F.F.Z.5.r X.).`.`.F.t.k.`.v.e ` P.P.P.P.P.",
"P.P.P.P.P.P.a._ x z. XW.k.`.`.4.h.`.`.`.`.`.`.g.N F.`.I.n.[.x.6.8.3.P.P.P.P.P.P.",
"P.P.P.P.P.P.P.J.W k Z b.f.`.`.F.c.f.).`.`.`.C.j.v.).`.F.1.U g L w.P.P.P.P.P.P.P.",
"P.P.P.P.P.P.P.P.P.K.r.J %.).k.=.R.G.t.`.`.A.n.{.W.;.S.k.; l a.P.P.P.P.P.P.P.P.P.",
"P.P.P.P.P.P.P.P.P.P.P.P.p.x S | | Y -.S.F.;.G 8 2 Z R.| q s.P.P.P.P.P.P.P.P.P.P.",
"P.P.P.P.P.P.P.P.P.P.P.P.P.l d  X XW.T.B.j.V.B.j 5 d. .4 u.P.P.P.P.P.P.P.P.P.P.P.",
"P.P.P.P.P.P.P.P.P.P.P.P.P.3.@ X.f.B.T.].{.'.V.x e -.; ] P.P.P.P.P.P.P.P.P.P.P.P.",
"P.P.P.P.P.P.P.P.P.P.P.P.P.J.1 z '.T.c.S.^./.C.D 5 5 M P.P.P.P.P.P.P.P.P.P.P.P.P.",
"P.P.P.P.P.P.P.P.P.P.P.P.P.P.[ - d.^.B.T.}.].B.x X i J.P.P.P.P.P.P.P.P.P.P.P.P.P.",
"P.P.P.P.P.P.P.P.P.P.P.P.P.P.P.m - %.V.(.(./.I.t 1 a.P.P.P.P.P.P.P.P.P.P.P.P.P.P.",
"P.P.P.P.P.P.P.P.P.P.P.P.P.P.P.J.n > P 8.h.t.x 9 p.P.P.P.P.P.P.P.P.P.P.P.P.P.P.P.",
"P.P.P.P.P.P.P.P.P.P.P.P.P.P.P.P.L.] 9 $ & ; k p.P.P.P.P.P.P.P.P.P.P.P.P.P.P.P.P."
};
