/* XPM */
static char *rainbow[] = {
/* columns rows colors chars-per-pixel */
"40 40 153 2 ",
"   c #ED0E03",
".  c #ED1301",
"X  c #F02301",
"o  c #F12A01",
"O  c #F43B01",
"+  c #F33601",
"@  c #ED241A",
"#  c #ED2A1F",
"$  c #ED2C21",
"%  c #EE3126",
"&  c #F64C02",
"*  c #F95D01",
"=  c #F96202",
"-  c #FB6F02",
";  c #FC7501",
":  c #FD7F01",
">  c #ED4D3E",
",  c #F04C3D",
"<  c #EF5242",
"1  c #F05343",
"2  c #F36D59",
"3  c #F2725D",
"4  c #ED6856",
"5  c #EE7762",
"6  c #F37B65",
"7  c #7DE864",
"8  c #7AE86C",
"9  c #77E875",
"0  c #74E87C",
"q  c #79E870",
"w  c #FE8301",
"e  c #FE8C01",
"r  c #FE9001",
"t  c #FE9C01",
"y  c #FEA301",
"u  c #FDBD01",
"i  c #ADEE1F",
"p  c #B1EF1D",
"a  c #9DEB26",
"s  c #96EA2E",
"d  c #9AEA2A",
"f  c #8DE93F",
"g  c #94EA31",
"h  c #A4ED23",
"j  c #A9ED21",
"k  c #FDC301",
"l  c #FCCC01",
"z  c #FCD201",
"x  c #D6F90F",
"c  c #D9F90E",
"v  c #C4F416",
"b  c #C9F515",
"n  c #D4F810",
"m  c #D2F710",
"M  c #FCE400",
"N  c #FBEE00",
"B  c #EEFE05",
"V  c #E6FD09",
"C  c #FAF400",
"Z  c #F1FE04",
"A  c #F9FA01",
"S  c #F4826B",
"D  c #8AE944",
"F  c #87E94E",
"G  c #84E954",
"H  c #81E85A",
"J  c #6D2DBC",
"K  c #702EBA",
"L  c #6D31BD",
"P  c #6E30B6",
"I  c #7232BB",
"U  c #7A3BBA",
"Y  c #7536B7",
"T  c #7F40B9",
"R  c #5F3FC9",
"E  c #6534C3",
"W  c #623AC6",
"Q  c #613EC8",
"!  c #3E7AEE",
"~  c #3F77ED",
"^  c #3C7EF0",
"/  c #5F41CA",
"(  c #594AD1",
")  c #4E5EDC",
"_  c #5553D6",
"`  c #5257D9",
"'  c #5159D9",
"]  c #4D60DE",
"[  c #4966E2",
"{  c #456DE6",
"}  c #4868E3",
"|  c #4175EB",
" . c #8C4EB7",
".. c #8446B8",
"X. c #8143B5",
"o. c #9154B6",
"O. c #9A5EB6",
"+. c #965AB6",
"@. c #9D62B4",
"#. c #A165B5",
"$. c #A66BB4",
"%. c #A86DB4",
"&. c #6FE886",
"*. c #70E884",
"=. c #6AE894",
"-. c #66E79C",
";. c #68E799",
":. c #69E796",
">. c #5FE7AE",
",. c #64E7A3",
"<. c #61E7AA",
"1. c #3D9DEE",
"2. c #3B82F1",
"3. c #3A8CF2",
"4. c #3B93F1",
"5. c #3C98F0",
"6. c #3EA3ED",
"7. c #41AEEA",
"8. c #43B8E7",
"9. c #41B3E8",
"0. c #42B6E7",
"q. c #49D6DF",
"w. c #4AD9DE",
"e. c #56E6C4",
"r. c #53E6CA",
"t. c #4EE3D6",
"y. c #4DE0D9",
"u. c #51E5D0",
"i. c #45C5E4",
"p. c #46CBE3",
"a. c #48CFE1",
"s. c #47D0E2",
"d. c #48D3E0",
"f. c #BC85B0",
"g. c #FAB596",
"h. c #FAB798",
"j. c #FBBA9B",
"k. c #CA93AF",
"l. c #CF98AF",
"z. c #D29CAF",
"x. c #C38CB0",
"c. c #CA93B0",
"v. c #C790B0",
"b. c #DAA5AD",
"n. c #E2AEAD",
"m. c #E6B2AC",
"M. c #E8B4AC",
"N. c #EFBCAB",
"B. c #F2BFAB",
"V. c #FCC1A1",
"C. c #F6C3AA",
"Z. c #F9C6AA",
"A. c #FFCCAA",
/* pixels */
"A.A.A.A.A.A.A.A.A.A.A.A.A.A.A.A.A.A.A.A.A.A.A.A.A.A.A.A.A.A.A.A.A.A.A.A.A.A.A.A.",
"A.A.A.A.A.A.A.A.A.A.A.A.A.A.A.A.A.A.A.A.A.A.A.A.A.A.A.A.A.A.A.A.A.A.A.A.A.A.A.A.",
"A.A.A.A.A.A.A.A.A.A.A.A.A.A.A.A.A.A.A.A.A.A.A.A.A.A.A.A.A.A.A.A.A.A.A.A.A.A.A.A.",
"A.A.A.A.A.A.A.A.A.A.A.A.A.A.A.A.A.A.A.A.A.A.A.A.A.A.A.A.A.A.A.A.A.A.A.A.A.A.A.A.",
"A.A.A.A.A.A.A.A.A.A.A.A.A.A.A.A.A.A.A.A.A.A.A.A.A.A.A.A.A.A.A.A.A.A.A.A.A.A.A.A.",
"A.A.A.A.A.A.A.A.A.A.A.A.A.A.A.A.A.A.A.A.A.A.A.A.A.A.A.A.A.A.A.A.A.A.A.A.A.A.A.A.",
"A.A.A.A.A.A.A.A.A.A.A.A.A.A.A.A.A.A.A.A.A.A.A.A.A.A.A.A.A.A.A.A.A.A.A.A.A.A.A.A.",
"A.A.A.A.A.A.A.A.A.A.A.A.A.A.A.A.A.A.A.A.A.A.A.A.A.A.A.A.A.A.A.A.A.A.A.A.A.A.A.A.",
"A.A.A.A.A.A.A.A.A.A.A.A.A.A.A.A.A.A.A.A.A.A.A.A.A.A.A.A.A.A.A.A.A.A.A.A.A.A.A.A.",
"A.A.A.A.A.A.A.A.A.A.A.A.A.A.A.A.A.A.A.A.A.A.A.A.A.A.A.A.A.A.A.A.A.A.A.A.A.A.A.A.",
"A.A.A.A.A.A.A.A.A.A.A.A.A.A.A.A.A.A.A.A.A.A.A.A.A.A.A.A.A.A.A.A.A.A.A.A.A.A.A.A.",
"A.A.A.A.A.A.A.A.A.A.A.A.A.A.A.A.A.A.A.A.A.A.A.A.A.A.A.A.A.A.A.A.A.A.A.A.A.A.A.A.",
"A.A.A.A.A.A.A.A.A.A.A.A.A.A.A.A.A.A.A.A.A.A.A.A.A.A.A.A.A.A.A.A.A.A.A.A.A.A.A.A.",
"A.A.A.A.A.A.A.A.A.A.A.A.A.A.A.A.A.A.A.A.A.A.A.A.A.A.A.A.A.A.A.A.A.A.A.A.A.A.A.A.",
"A.A.A.A.A.A.A.A.A.A.A.A.A.A.A.A.A.A.A.A.A.A.A.A.A.A.A.A.A.A.A.A.A.A.A.A.A.A.A.A.",
"A.A.A.A.A.A.A.A.A.A.A.A.A.A.A.A.A.A.A.A.A.A.A.A.A.A.A.A.A.A.A.A.A.A.A.A.A.A.A.A.",
"A.A.A.A.A.A.A.A.A.A.A.A.A.A.A.A.A.A.A.A.A.A.A.A.A.A.A.A.A.A.A.A.A.A.A.A.A.A.A.A.",
"A.A.A.A.A.A.A.A.A.A.A.A.A.A.A.A.A.A.A.A.A.A.A.A.A.A.A.A.A.A.A.A.A.A.A.A.A.A.A.A.",
"A.A.A.A.A.A.A.A.A.A.A.A.A.A.A.A.A.A.A.A.A.A.A.A.A.A.A.A.A.A.A.A.A.A.A.A.A.A.A.A.",
"A.A.A.A.A.A.A.A.A.A.A.A.A.A.A.A.A.A.A.A.A.A.A.A.A.A.A.A.A.A.A.A.A.A.A.A.A.A.A.A.",
"A.A.A.A.A.A.A.A.A.A.A.A.A.M.c.%. .U J J J K U  .%.v.M.A.A.A.A.A.A.A.A.A.A.A.A.A.",
"A.A.A.A.A.A.A.A.A.A.C.z.#.U L E R ( _ _ _ _ ( / E L U #.l.C.A.A.A.A.A.A.A.A.A.A.",
"A.A.A.A.A.A.A.A.A.l.o.L W _ } ~ 2.3.3.4.4.3.3.2.! } _ W L o.l.Z.A.A.A.A.A.A.A.A.",
"A.A.A.A.A.A.A.M.#.I W ) ! 3.1.9.i.s.d.w.w.q.s.i.9.1.3.! ] Q I @.m.A.A.A.A.A.A.A.",
"A.A.A.A.A.A.b...E ` ! 4.9.a.y.r.>.:.*.0 0 *.:.>.e.y.s.9.4.! ' E ..z.A.A.A.A.A.A.",
"A.A.A.A.A.l.U W { 3.7.d.u.,.8 D g a h h h h a g D 8 ,.r.q.7.3.{ W U c.A.A.A.A.A.",
"A.A.A.A.z.U / | 4.i.t.,.H s j v x V B Z Z B V x v j s G ,.t.i.4.| / I z.A.A.A.A.",
"A.A.A.m...Q | 5.a.r.9 g i m B A M z k u u k z M C B n i g 9 r.d.1.| Q T n.A.A.A.",
"A.A.Z.O.E { 4.d.e.H a v B C l y r w ; - - ; w r y l C Z v a H e.d.4.| E +.C.A.A.",
"A.A.x.J ) 3.i.r.H h n A z t w = O X . . . . X O = w t z A x h H e.a.3.) J x.A.A.",
"A.B. ./ ^ 9.t.q a x A u e = o   @ , 2 6 6 2 , @   o = e u A c a 8 t.9.2./ ..N.A.",
"A.l.J } 4.w.-.s b A u w & . # 6 h.A.A.A.A.A.A.h.6 $ . & w u A b s ;.w.4.} J x.A.",
"Z.O.W ^ 0.r.G i Z z e &   , h.A.A.A.A.A.A.A.A.A.A.h.<   & e l Z p F r.8.^ Q o.C.",
"n.U _ 3.d.-.a x N t = . > V.A.A.A.A.A.A.A.A.A.A.A.A.V.<   * t N c a ;.d.4.` U b.",
"x.L { 6.t.7 i Z k : X $ h.A.A.A.A.A.A.A.A.A.A.A.A.A.A.j.% X : k Z i 7 t.6.{ L f.",
"%.E ! 9.e.D v C y *   S A.A.A.A.A.A.A.A.A.A.A.A.A.A.A.A.S   * y C v f e.8.! W @.",
" ./ 2.i.<.g c M e O @ h.A.A.A.A.A.A.A.A.A.A.A.A.A.A.A.A.j.# + e M c s <.a.2./ X.",
"Y ( 3.s.:.a V z w X > A.A.A.A.A.A.A.A.A.A.A.A.A.A.A.A.A.A.1 X : l V a :.d.3.( P ",
"J _ 3.d.&.h B k ; . 4 A.A.A.A.A.A.A.A.A.A.A.A.A.A.A.A.A.A.3 . ; k B h *.w.4._ K ",
"I _ 4.w.0 h B u ; . 5 A.A.A.A.A.A.A.A.A.A.A.A.A.A.A.A.A.A.S . - u Z j 0 w.4._ I "
};
