/* XPM */
static char *strawberry[] = {
/* columns rows colors chars-per-pixel */
"40 40 137 2 ",
"   c #000304",
".  c #020B07",
"X  c #03040A",
"o  c #020B0B",
"O  c #0C0E0A",
"+  c #040D16",
"@  c #080C12",
"#  c #010A1B",
"$  c #0B0918",
"%  c #030513",
"&  c #0D1211",
"*  c #02111E",
"=  c #0A131B",
"-  c #12111A",
";  c #27201D",
":  c #28241D",
">  c #031423",
",  c #091324",
"<  c #0B1C24",
"1  c #0D1129",
"2  c #0C1D29",
"3  c #101024",
"4  c #151C25",
"5  c #1B1728",
"6  c #151B2A",
"7  c #1A1A2D",
"8  c #0E1031",
"9  c #1B1E30",
"0  c #111338",
"q  c #141B3A",
"w  c #131435",
"e  c #33182D",
"r  c #2B2723",
"t  c #22242F",
"y  c #2B272E",
"u  c #36343E",
"i  c #3E333B",
"p  c #3D3939",
"a  c #004D00",
"s  c #0C6F00",
"d  c #057600",
"f  c #5C6C2B",
"g  c #710244",
"h  c #554A4D",
"j  c #56504A",
"k  c #73615F",
"l  c #C3333F",
"z  c #900C4E",
"x  c #BB1E53",
"c  c #B42540",
"v  c #B7274E",
"b  c #BC244E",
"n  c #BD344A",
"m  c #C52B41",
"M  c #CD2D44",
"N  c #C62C48",
"B  c #CB2F49",
"V  c #D02C44",
"C  c #D32B4B",
"Z  c #CD3146",
"A  c #CF3349",
"S  c #D23145",
"D  c #D83040",
"F  c #D3324A",
"G  c #DB344E",
"H  c #D33A4C",
"J  c #D93B4C",
"K  c #C42B50",
"L  c #CD275C",
"P  c #D72F50",
"I  c #DA3B50",
"U  c #E33952",
"Y  c #89725F",
"T  c #8D756A",
"R  c #E44646",
"E  c #E34847",
"W  c #E4464A",
"Q  c #E54A4A",
"!  c #E94A4A",
"~  c #EB504F",
"^  c #E74C50",
"/  c #EB5051",
"(  c #E46550",
")  c #F06B5C",
"_  c #E77754",
"`  c #E67859",
"'  c #EC7B55",
"]  c #F57365",
"[  c #F07C66",
"{  c #119400",
"}  c #2EB805",
"|  c #41AC0D",
" . c #77B319",
".. c #27C606",
"X. c #72BA43",
"o. c #9CC123",
"O. c #A4C920",
"+. c #ADDA2D",
"@. c #A5E328",
"#. c #ACE425",
"$. c #BFEA3C",
"%. c #DECD25",
"&. c #DBCF28",
"*. c #DED22A",
"=. c #E2CC2B",
"-. c #E5D230",
";. c #B1B25D",
":. c #A48478",
">. c #A58879",
",. c #AC8B7C",
"<. c #EA8B64",
"1. c #F28F61",
"2. c #F09369",
"3. c #F88470",
"4. c #FA8B72",
"5. c #F39E74",
"6. c #F7967A",
"7. c #F8A471",
"8. c #F8A279",
"9. c #FAAF7D",
"0. c #F8B27B",
"q. c #B0CE42",
"w. c #B4D441",
"e. c #FCC37F",
"r. c #FFC978",
"t. c #B99784",
"y. c #D2AB92",
"u. c #DCB197",
"i. c #F3B480",
"p. c #F7FA84",
"a. c #FEFD84",
"s. c #FEFF8C",
"d. c #FCFE92",
"f. c #F0C0A2",
"g. c #F8C7A6",
"h. c #FCCCA5",
"j. c #FFCCAA",
/* pixels */
"j.j.j.j.j.j.j.j.j.j.j.j.j.j.j.j.j.j.j.j.j.j.j.j.j.j.j.j.j.j.j.j.j.j.j.j.j.j.j.j.",
"j.j.j.j.j.j.j.j.j.j.j.j.j.j.j.j.j.j.j.j.j.j.j.j.j.j.j.j.j.j.j.j.j.j.j.j.j.j.j.j.",
"j.j.j.j.j.j.j.j.j.j.j.j.j.j.j.j.j.j.j.j.j.j.j.j.j.j.j.j.j.j.j.j.j.j.j.j.j.j.j.j.",
"j.j.j.j.j.j.j.j.j.j.j.j.j.j.j.j.j.j.j.j.j.j.j.j.j.j.j.j.j.j.j.j.j.j.j.j.j.j.j.j.",
"j.j.j.j.j.j.j.j.j.j.j.j.j.j.j.j.j.j.j.j.j.j.j.j.j.j.j.j.j.j.j.j.j.j.j.j.j.j.j.j.",
"j.j.j.j.j.j.j.j.j.j.j.j.j.j.j.j.j.j.j.j.j.j.j.j.j.j.j.j.j.j.j.j.j.j.j.j.j.j.j.j.",
"j.j.j.j.j.j.j.j.j.j.j.j.j.j.j.j.t.j.u.j.j.j.j.j.j.j.j.j.j.j.j.j.j.j.j.j.j.j.j.j.",
"j.j.j.j.j.j.j.j.j.j.j.j.j.j.j.j.h j.T j.j.,.h :.t.j.j.j.j.j.j.j.j.j.j.j.j.j.j.j.",
"j.j.j.j.j.j.j.j.j.j.j.j.j.j.j.j.w.j.f 7 3 q.+.o.;.j.j.j.j.j.j.j.j.j.j.j.j.j.j.j.",
"j.j.j.j.j.j.j.j.j.j.j.j.j.j.j.j.$.h. .1 1 @.#.O.h.j.j.j.j.j.j.j.j.j.j.j.j.j.j.j.",
"j.j.j.j.j.j.j.j.j.j.j.j.j.j.j.j.X X...8 w | } % i j.j.j.j.j.j.j.j.j.j.j.j.j.j.j.",
"j.j.j.j.j.j.j.j.j.j.j.j.j.j.j.j.1 a { 0 q s d 7 ,.j.j.j.j.j.j.j.j.j.j.j.j.j.j.j.",
"j.j.j.j.j.j.j.j.j.j.j.j.j.j.; > * b K z g v c # # r y.j.j.j.j.j.j.j.j.j.j.j.j.j.",
"j.j.j.j.j.j.j.j.j.j.j.j.j.&   * < U I L x J I e >     j.j.j.j.j.j.j.j.j.j.j.j.j.",
"j.j.j.j.j.j.j.j.j.j.j.<   5.( ! ! Q Q Q Q 2.` ' 5.] ) + j.j.j.j.j.j.j.j.j.j.j.j.",
"j.j.j.j.j.j.j.j.j.j.j.  o e.7.W Q Q Q Q Q 9.8.<.0.] ) - + j.j.j.j.j.j.j.j.j.j.j.",
"j.j.j.j.j.j.j.j.j.j.Y i._ Q E s.s.W Q Q Q Q W s.d.W Q 4.6.k j.j.j.j.j.j.j.j.j.j.",
"j.j.j.j.j.j.j.j.j.j.  r.1.Q R s.s.W Q Q Q Q R s.d.W Q [ 3.7 j.j.j.j.j.j.j.j.j.j.",
"j.j.j.j.j.j.j.j.j.j.6 ! Q Q Q Z M Q Q Q Q Q Q A Z Q Q Q / 7 j.j.j.j.j.j.j.j.j.j.",
"j.j.j.j.j.j.j.j.j.j.6 ! Q Q Q J J Q Q W Q Q Q J I ! Q Q ~ 7 j.j.j.j.j.j.j.j.j.j.",
"j.j.j.j.j.j.j.j.j.j.6 ! Q Q Q Q Q Q Q a.s.Q Q Q Q Q Q ^ / 7 j.j.j.j.j.j.j.j.j.j.",
"j.j.j.j.j.j.j.j.j.j.6 ! E Q Q Q Q Q Q s.s.R Q Q Q Q Q ^ / 7 j.j.j.j.j.j.j.j.j.j.",
"j.j.j.j.j.j.j.j.j.j.2 C P a.a.W Q Q Q Z M Q Q Q Q a.p.D W 9 j.j.j.j.j.j.j.j.j.j.",
"j.j.j.j.j.j.j.j.j.j.g.C M s.s.Q Q Q Q J J Q Q Q Q a.s.D l y.f.j.j.j.j.j.j.j.j.j.",
"j.j.j.j.j.j.j.j.j.j.j.4 > V C Q Q Q Q Q Q Q Q Q Q F F # , j.j.j.j.j.j.j.j.j.j.j.",
"j.j.j.j.j.j.j.j.j.j.j.j.4 M M W Q Q Q Q Q Q Q Q Q J H , u j.j.j.j.j.j.j.j.j.j.j.",
"j.j.j.j.j.j.j.j.j.j.j.j.* H H =.=.W Q W Q Q Q %.&.F I . : j.j.j.j.j.j.j.j.j.j.j.",
"j.j.j.j.j.j.j.j.j.j.j.j.j n H -.-.R Q Q Q Q Q *.*.G m O j.j.j.j.j.j.j.j.j.j.j.j.",
"j.j.j.j.j.j.j.j.j.j.j.j.j.$ $ I H F F F F F F F F X X j.j.j.j.j.j.j.j.j.j.j.j.j.",
"j.j.j.j.j.j.j.j.j.j.j.j.j.y.y N A D Z D D F F F m X y.j.j.j.j.j.j.j.j.j.j.j.j.j.",
"j.j.j.j.j.j.j.j.j.j.j.j.j.j.j.4 5 M Z B B M Z - @ j.j.j.j.j.j.j.j.j.j.j.j.j.j.j.",
"j.j.j.j.j.j.j.j.j.j.j.j.j.j.j.>.t D M M M V M = j.j.j.j.j.j.j.j.j.j.j.j.j.j.j.j.",
"j.j.j.j.j.j.j.j.j.j.j.j.j.j.j.j.j.j.7 7 9 = p j.j.j.j.j.j.j.j.j.j.j.j.j.j.j.j.j.",
"j.j.j.j.j.j.j.j.j.j.j.j.j.j.j.j.j.j.j.j.j.j.j.j.j.j.j.j.j.j.j.j.j.j.j.j.j.j.j.j.",
"j.j.j.j.j.j.j.j.j.j.j.j.j.j.j.j.j.j.j.j.j.j.j.j.j.j.j.j.j.j.j.j.j.j.j.j.j.j.j.j.",
"j.j.j.j.j.j.j.j.j.j.j.j.j.j.j.j.j.j.j.j.j.j.j.j.j.j.j.j.j.j.j.j.j.j.j.j.j.j.j.j.",
"j.j.j.j.j.j.j.j.j.j.j.j.j.j.j.j.j.j.j.j.j.j.j.j.j.j.j.j.j.j.j.j.j.j.j.j.j.j.j.j.",
"j.j.j.j.j.j.j.j.j.j.j.j.j.j.j.j.j.j.j.j.j.j.j.j.j.j.j.j.j.j.j.j.j.j.j.j.j.j.j.j.",
"j.j.j.j.j.j.j.j.j.j.j.j.j.j.j.j.j.j.j.j.j.j.j.j.j.j.j.j.j.j.j.j.j.j.j.j.j.j.j.j.",
"j.j.j.j.j.j.j.j.j.j.j.j.j.j.j.j.j.j.j.j.j.j.j.j.j.j.j.j.j.j.j.j.j.j.j.j.j.j.j.j."
};
