/* XPM */
static char *bec215e968554f63f8a8c8d306434da381QntsyFXKlMZFvG[] = {
/* columns rows colors chars-per-pixel */
"40 40 124 2 ",
"   c #211F30",
".  c #232031",
"X  c #242131",
"o  c #232131",
"O  c #765F4F",
"+  c #9F7C5D",
"@  c #9A775B",
"#  c #9A785B",
"$  c #997659",
"%  c #A78B6C",
"&  c #817464",
"*  c #8E5B4D",
"=  c #D09168",
"-  c #D7A672",
";  c #D5A270",
":  c #D5A16F",
">  c #DEB480",
",  c #E2B483",
"<  c #9E7963",
"1  c #232030",
"2  c #78373C",
"3  c #B56552",
"4  c #C78F67",
"5  c #D09F6F",
"6  c #CF9E6E",
"7  c #CF9D6D",
"8  c #CF9F6F",
"9  c #D5AB7A",
"0  c #D9B184",
"q  c #CD906D",
"w  c #895246",
"e  c #7A3B3E",
"r  c #A44644",
"t  c #AD5E4F",
"y  c #CA9469",
"u  c #CF9D6E",
"i  c #D3A776",
"p  c #DDBA8B",
"a  c #C58766",
"s  c #BD6F54",
"d  c #8B5649",
"f  c #A54844",
"g  c #A24845",
"h  c #AB5A4D",
"j  c #C28162",
"k  c #BA6F55",
"l  c #BE7055",
"z  c #A54845",
"x  c #A04644",
"c  c #D1A270",
"v  c #CE9C6C",
"b  c #D8B07E",
"n  c #B86D53",
"m  c #BE7155",
"M  c #A14744",
"N  c #A04543",
"B  c #B06452",
"V  c #C58B65",
"C  c #D6AC80",
"Z  c #C88E6C",
"A  c #B86C52",
"S  c #B96D54",
"D  c #B96E54",
"F  c #9F4342",
"G  c #B76A51",
"H  c #C78E66",
"J  c #D1A170",
"K  c #D6AC7A",
"L  c #D9B284",
"P  c #AC5D4F",
"I  c #C8956D",
"U  c #D6B288",
"Y  c #C38566",
"T  c #B86C53",
"R  c #9B4446",
"E  c #8D404B",
"W  c #8F454F",
"Q  c #AC6153",
"!  c #BA6F54",
"~  c #A24844",
"^  c #984045",
"/  c #893645",
"(  c #833145",
")  c #823045",
"_  c #8D3D48",
"`  c #A85B4F",
"'  c #BB7155",
"]  c #A24744",
"[  c #974045",
"{  c #8A3746",
"}  c #833246",
"|  c #843346",
" . c #823145",
".. c #8F4049",
"X. c #994245",
"o. c #893746",
"O. c #AB5E50",
"+. c #B86D54",
"@. c #9B4344",
"#. c #873546",
"$. c #8A3A48",
"%. c #AE6151",
"&. c #A64945",
"*. c #BF7155",
"=. c #C07256",
"-. c #7B3C3E",
";. c #9C4245",
":. c #AD5D51",
">. c #8D594A",
",. c #231F30",
"<. c #73353F",
"1. c #923947",
"2. c #863347",
"3. c #873447",
"4. c #853146",
"5. c #98434B",
"6. c #7C4345",
"7. c #221F30",
"8. c #50283B",
"9. c #682D40",
"0. c #662D3F",
"q. c #682C40",
"w. c #50273A",
"e. c white",
/* pixels */
"  . X X X X X X X X X X X X X X X X X X X X X X X X X X X X X X X X X X X X o   ",
". O + @ # # # # # # # # # # # # # # # # # # # # # # # # # # # # # # # @ $ % & o ",
". * = - ; ; ; ; ; ; ; ; ; ; ; ; ; ; ; ; ; ; ; ; ; ; ; ; ; ; ; ; ; ; ; : > , < X ",
"1 2 3 4 5 6 6 6 6 6 6 6 6 6 6 6 6 6 6 6 6 6 6 6 6 6 6 6 6 6 6 6 6 7 8 9 0 q w . ",
"1 e r t y u 6 6 6 6 6 6 6 6 6 6 6 6 6 6 6 6 6 6 6 6 6 6 6 6 6 6 6 8 i p a s d . ",
"1 e f g h y 5 6 6 6 6 6 6 6 6 6 6 6 6 6 6 6 6 6 6 6 6 6 6 6 6 6 7 9 p j k l d . ",
"1 e z x g t 4 c 6 6 6 6 6 6 6 6 6 6 6 6 6 6 6 6 6 6 6 6 6 6 6 v b 0 a k n m d . ",
"1 e z M M N B V c 6 6 6 6 6 6 6 6 6 6 6 6 6 6 6 6 6 6 6 6 6 7 b C Z A S D m d . ",
"1 e z M M M F B 4 5 6 6 6 6 6 6 6 6 6 6 6 6 6 6 6 6 6 6 7 8 9 0 Z G D D D m d . ",
"1 e z M M M M N t y u 6 6 6 6 6 6 6 6 6 6 6 6 6 6 6 6 6 8 i p a A D D D D m d . ",
"1 e z M M M M M g h y 5 6 6 6 6 6 6 6 6 6 6 6 6 6 6 6 7 9 p j k S D D D D m d . ",
"1 e z M M M M M x g t 4 c 6 6 6 6 6 6 6 6 6 6 6 6 6 v b 0 a k n D D D D D m d . ",
"1 e z M M M M M M M N B V c 6 6 6 6 6 6 6 6 6 6 6 7 b C Z A S D D D D D D m d . ",
"1 e z M M M M M M M M F B 4 5 6 6 6 6 6 6 6 6 7 8 9 0 Z G D D D D D D D D m d . ",
"1 e z M M M M M M M M M N t y u 6 6 6 6 6 6 6 8 i p a A D D D D D D D D D m d . ",
"1 e z M M M M M M M M M M g h y 5 6 6 6 6 6 7 9 p j k S D D D D D D D D D m d . ",
"1 e z M M M M M M M M M M x g t 4 c 6 6 6 v b 0 a k n D D D D D D D D D D m d . ",
"1 e z M M M M M M M M M M M M N B V c 6 7 b C Z A S D D D D D D D D D D D m d . ",
"1 e z M M M M M M M M M M M M M F B H J K L Z G D D D D D D D D D D D D D m d . ",
"1 e z M M M M M M M M M M M M M M N P I U Y T D D D D D D D D D D D D D D m d . ",
"1 e z M M M M M M M M M M M M M M M R E W Q ! D D D D D D D D D D D D D D m d . ",
"1 e z M M M M M M M M M M M M M ~ ^ / ( ) _ ` ' D D D D D D D D D D D D D m d . ",
"1 e z M M M M M M M M M M M M ] [ { } | |  ...` ! D D D D D D D D D D D D m d . ",
"1 e z M M M M M M M M M M M M X.o.} | | | |  ._ O.+.! D D D D D D D D D D m d . ",
"1 e z M M M M M M M M M M M @.#.| | | | | | | } $.%.+.D D D D D D D D D D m d . ",
"1 e z M M M M M M M M M ] X.#.| | | | | | | | | | $.O.! D D D D D D D D D m d . ",
"1 e z M M M M M M M M ~ [ o.| | | | | | | | | | | } _ ` ' D D D D D D D D m d . ",
"1 e z M M M M M M M ] [ { } | | | | | | | | | | | |  ...` ! D D D D D D D m d . ",
"1 e z M M M M M M M X.o.} | | | | | | | | | | | | | |  ._ O.+.! D D D D D m d . ",
"1 e z M M M M M M @.#.| | | | | | | | | | | | | | | | | } $.%.+.D D D D D m d . ",
"1 e z M M M M ] X.#.| | | | | | | | | | | | | | | | | | | | $.O.! D D D D m d . ",
"1 e z M M M ~ [ o.| | | | | | | | | | | | | | | | | | | | | } _ ` ' D D D m d . ",
"1 e z M M ] [ { } | | | | | | | | | | | | | | | | | | | | | |  ...` ! D D m d . ",
"1 e z M M X.o.} | | | | | | | | | | | | | | | | | | | | | | | |  ._ O.+.! m d . ",
"1 e &.M @.#.| | | | | | | | | | | | | | | | | | | | | | | | | | | } $.%.+.*.d . ",
"1 e &.X.#.| | | | | | | | | | | | | | | | | | | | | | | | | | | | | | $.O.=.d . ",
"1 -.;.o.| | | | | | | | | | | | | | | | | | | | | | | | | | | | | | | } _ :.>.. ",
",.<.1.2.3.3.3.3.3.3.3.3.3.3.3.3.3.3.3.3.3.3.3.3.3.3.3.3.3.3.3.3.3.3.3.3.4.5.6.1 ",
"7.8.9.0.0.0.0.0.0.0.0.0.0.0.0.0.0.0.0.0.0.0.0.0.0.0.0.0.0.0.0.0.0.0.0.0.0.q.w.7.",
"  7.,.,.,.,.,.,.,.,.,.,.,.,.,.,.,.,.,.,.,.,.,.,.,.,.,.,.,.,.,.,.,.,.,.,.,.,.7.  "
};
